<svg xmlns="http://www.w3.org/2000/svg" width="24" height="24" viewBox="0 0 24 24">
    <g fill="none" fill-rule="evenodd">
        <path fill="#3B5998" d="M11.9719726,0 C18.5843014,0 23.9440274,5.36046575 23.9440274,11.9720548 C23.9440274,18.5843836 18.5843014,23.9440274 11.9719726,23.9440274 C5.35964384,23.9440274 0,18.5843014 0,11.9720548 C0,5.36046575 5.35972603,0 11.9719726,0 Z"/>
        <path fill="#FFF" d="M13.4296438,8.24194521 L14.9725479,8.24194521 L14.9725479,5.96276712 L13.1588219,5.96276712 L13.1588219,5.9709863 C10.9611781,6.04882192 10.5107671,7.28416438 10.4710685,8.58164384 L10.4665479,8.58164384 L10.4665479,9.71975342 L8.97008219,9.71975342 L8.97008219,11.9517534 L10.4665479,11.9517534 L10.4665479,17.9347397 L12.7218082,17.9347397 L12.7218082,11.9517534 L14.5692329,11.9517534 L14.9261096,9.71975342 L12.7225479,9.71975342 L12.7225479,9.03213699 C12.7225479,8.59364384 13.0143288,8.24194521 13.4296438,8.24194521 Z"/>
    </g>
</svg>
