<svg xmlns="http://www.w3.org/2000/svg" xmlns:xlink="http://www.w3.org/1999/xlink" width="24" height="24" viewBox="0 0 24 24">
    <defs>
        <linearGradient id="playbuzz-icon-a" x1="0%" x2="100%" y1="100%" y2="0%">
            <stop offset="0%" stop-color="#C25DFF"/>
            <stop offset="100%" stop-color="#0EA9FF"/>
        </linearGradient>
        <path id="playbuzz-icon-b" d="M17.158625,9.50106667 C17.158625,12.7185667 14.537875,15.33565 11.3157917,15.33565 C10.4412917,15.33565 9.55579167,15.1275667 8.754625,14.7334 L10.437625,12.3528167 C10.685125,12.4619 11.012375,12.5205667 11.3157917,12.5205667 C12.9987917,12.5205667 14.3682917,11.1529 14.3682917,9.47265 C14.3682917,7.79148333 12.9987917,6.42473333 11.3157917,6.42473333 C9.63370833,6.42473333 8.265125,7.79973333 8.26329167,9.49006667 L8.26329167,9.49373333 L8.26329167,15.40715 L5.49954167,19.2498167 L5.49954167,9.52031667 C5.50045833,9.4149 5.504125,9.30948333 5.51054167,9.20406667 C5.51145833,9.19398333 5.512375,9.1839 5.512375,9.17381667 C5.51970833,9.06473333 5.528875,8.95748333 5.54170833,8.85023333 C5.87720833,5.93706667 8.33845833,3.66648333 11.3157917,3.66648333 C14.537875,3.66648333 17.158625,6.28356667 17.158625,9.50106667"/>
    </defs>
    <g fill="none" fill-rule="evenodd">
        <circle cx="12" cy="12" r="12" fill="url(#playbuzz-icon-a)"/>
        <g transform="translate(1 1)">
            <mask id="playbuzz-icon-c" fill="#fff">
                <use xlink:href="#playbuzz-icon-b"/>
            </mask>
            <use fill="#000" xlink:href="#playbuzz-icon-b"/>
            <g fill="#FFF" mask="url(#playbuzz-icon-c)">
                <rect width="22" height="22"/>
            </g>
        </g>
    </g>
</svg>
